<svg width="18px" height="18px" viewBox="0 0 18 18" 
  xmlns="http://www.w3.org/2000/svg">
  <!-- plyr -->
  <!-- <polygon points="10 3 13.6 3 9.6 7 11 8.4 15 4.4 15 8 17 8 17 1 10 1"></polygon>
  <polygon points="7 9.6 3 13.6 3 10 1 10 1 17 8 17 8 15 4.4 15 8.4 11"></polygon> -->
  <!-- uiza -->
  <g id="Page-1" stroke="none" stroke-width="1" fill="none" fill-rule="evenodd">
    <g id="scale">
      <polygon id="Stroke-1" stroke-opacity="0.00784313771" stroke="#000000" stroke-width="1.33333335e-11" points="0 0 17.9999989 0 17.9999989 17.9999989 0 17.9999989"></polygon>
      <path d="M10.9258004,2.99999987 L12.4875764,4.56177645 L10.5251707,6.51060176 L11.489398,7.47482899 L13.4382239,5.51242271 L14.9999999,7.07419928 L14.9999999,2.99999987 L10.9258004,2.99999987 Z M7.07419928,14.9999991 L5.51242271,13.4382231 L7.47482899,11.4893978 L6.51060176,10.5251706 L4.56177645,12.4875756 L2.99999987,10.9257997 L2.99999987,14.9999991 L7.07419928,14.9999991 Z" id="Fill-2" fill="#FFFFFF" fill-rule="nonzero"></path>
    </g>
  </g>
</svg>