<svg width="18px" height="18px" viewBox="0 0 18 18" 
  xmlns="http://www.w3.org/2000/svg">
  <!-- plyr -->
  <!-- <path d="M6,1 L3,1 C2.4,1 2,1.4 2,2 L2,16 C2,16.6 2.4,17 3,17 L6,17 C6.6,17 7,16.6 7,16 L7,2 C7,1.4 6.6,1 6,1 L6,1 Z"></path>
  <path d="M12,1 C11.4,1 11,1.4 11,2 L11,16 C11,16.6 11.4,17 12,17 L15,17 C15.6,17 16,16.6 16,16 L16,2 C16,1.4 15.6,1 15,1 L12,1 Z"></path> -->
  <!-- uiza -->
  <g id="Page-1" stroke="none" stroke-width="1" fill="none" fill-rule="evenodd">
    <g id="pause">
      <polygon id="Stroke-1" stroke-opacity="0.00784313771" stroke="#000000" stroke-width="1.33333335e-11" points="0 0 17.9999989 0 17.9999989 17.9999989 0 17.9999989"></polygon>
      <path d="M3.75,15 L7.5,15 L7.5,3 L3.75,3 L3.75,15 Z M10.5,3 L10.5,15 L14.25,15 L14.25,3 L10.5,3 Z" id="Fill-2" fill="#FFFFFF" fill-rule="nonzero"></path>
    </g>
  </g>
</svg>