<svg width="18px" height="18px" viewBox="0 0 18 18" 
  xmlns="http://www.w3.org/2000/svg">
  <!-- plyr -->
  <!-- <polygon points="12.4 12.5 14.5 10.4 16.6 12.5 18 11.1 15.9 9 18 6.9 16.6 5.5 14.5 7.6 12.4 5.5 11 6.9 13.1 9 11 11.1"></polygon>
  <path d="M3.78571429,6.00820648 L0.714285714,6.00820648 C0.285714286,6.00820648 0,6.30901277 0,6.76022222 L0,11.2723167 C0,11.7235261 0.285714286,12.0243324 0.714285714,12.0243324 L3.78571429,12.0243324 L7.85714286,15.8819922 C8.35714286,16.1827985 9,15.8819922 9,15.2803796 L9,2.75215925 C9,2.15054666 8.35714286,1.77453879 7.85714286,2.15054666 L3.78571429,6.00820648 Z"></path> -->
  <!-- uiza -->
  <g id="Page-1" stroke="none" stroke-width="1" fill="none" fill-rule="evenodd">
    <g id="muted">
      <polygon id="Stroke-1" stroke-opacity="0.00784313771" stroke="#000000" stroke-width="1.33333335e-11" points="0 0 17.9999989 0 17.9999989 17.9999989 0 17.9999989"></polygon>
      <polygon id="Fill-2" fill="#FFFFFF" fill-rule="nonzero" points="1.875 6.74999978 1.875 11.2499995 4.87499981 11.2499995 8.62499959 14.9999993 8.62499959 3 4.87499981 6.74999978"></polygon>
      <polygon id="Combined-Shape" fill="#FFFFFF" fill-rule="nonzero" points="15.4926407 6.2196699 16.5533008 7.2803301 14.6969199 9.1364199 16.5533008 10.9926407 15.4926407 12.0533009 13.6364199 10.1969199 11.7803301 12.0533009 10.7196699 10.9926407 12.5755449 9.1364199 10.7196699 7.2803301 11.7803301 6.2196699 13.6364199 8.0755449"></polygon>
    </g>
  </g>
</svg>