<svg width="18px" height="18px" viewBox="0 0 18 18" 
  xmlns="http://www.w3.org/2000/svg">
  <!-- plyr -->
  <!-- <polygon points="13.293 3.293 7.022 9.564 8.436 10.978 14.707 4.707 17 7 17 1 11 1"></polygon>
  <path d="M13,15 L3,15 L3,5 L8,5 L8,3 L2,3 C1.448,3 1,3.448 1,4 L1,16 C1,16.552 1.448,17 2,17 L14,17 C14.552,17 15,16.552 15,16 L15,10 L13,10 L13,15 L13,15 Z"></path> -->
  <!-- uiza -->
  <g id="Page-1" stroke="none" stroke-width="1" fill="none" fill-rule="evenodd">
    <g id="uiza-pip" transform="translate(0.000000, 2.000000)" fill="#000000" fill-rule="nonzero">
      <path d="M6.75,4.5 L1.125,4.5 L1.125,12.375 L15.75,12.375 L15.75,6.75 L16.875,6.75 L16.875,13.5 L0,13.5 L0,3.375 L6.75,3.375 L6.75,4.5 Z M7.875,5.625 L18,5.625 L18,0 L7.875,0 L7.875,5.625 Z M2.98828125,6.75 L2.98828125,7.875 L4.88671875,7.875 L2.63671875,10.125 L3.375,10.8632812 L5.625,8.61328125 L5.625,10.5117188 L6.75,10.5117188 L6.75,6.75" id="Shape"></path>
    </g>
  </g>
</svg>