<svg width="18px" height="18px" viewBox="0 0 18 18" 
  xmlns="http://www.w3.org/2000/svg">
  <!-- plyr -->
  <!-- <path d="M16.135,7.784 C14.832,7.458 14.214,5.966 14.905,4.815 C15.227,4.279 15.13,3.817 14.811,3.499 L14.501,3.189 C14.183,2.871 13.721,2.774 13.185,3.095 C12.033,3.786 10.541,3.168 10.216,1.865 C10.065,1.258 9.669,1 9.219,1 L8.781,1 C8.331,1 7.936,1.258 7.784,1.865 C7.458,3.168 5.966,3.786 4.815,3.095 C4.279,2.773 3.816,2.87 3.498,3.188 L3.188,3.498 C2.87,3.816 2.773,4.279 3.095,4.815 C3.786,5.967 3.168,7.459 1.865,7.784 C1.26,7.935 1,8.33 1,8.781 L1,9.219 C1,9.669 1.258,10.064 1.865,10.216 C3.168,10.542 3.786,12.034 3.095,13.185 C2.773,13.721 2.87,14.183 3.189,14.501 L3.499,14.811 C3.818,15.13 4.281,15.226 4.815,14.905 C5.967,14.214 7.459,14.832 7.784,16.135 C7.935,16.742 8.331,17 8.781,17 L9.219,17 C9.669,17 10.064,16.742 10.216,16.135 C10.542,14.832 12.034,14.214 13.185,14.905 C13.72,15.226 14.182,15.13 14.501,14.811 L14.811,14.501 C15.129,14.183 15.226,13.72 14.905,13.185 C14.214,12.033 14.832,10.541 16.135,10.216 C16.742,10.065 17,9.669 17,9.219 L17,8.781 C17,8.33 16.74,7.935 16.135,7.784 L16.135,7.784 Z M9,12 C7.343,12 6,10.657 6,9 C6,7.343 7.343,6 9,6 C10.657,6 12,7.343 12,9 C12,10.657 10.657,12 9,12 L9,12 Z"></path> -->
  <!-- uiza -->
  <g id="Page-1" stroke="none" stroke-width="1" fill="none" fill-rule="evenodd">
    <g id="setting">
      <polygon id="Stroke-1" stroke-opacity="0.00784313771" stroke="#000000" stroke-width="1.33333335e-11" points="0 0 17.9999989 0 17.9999989 17.9999989 0 17.9999989"></polygon>
      <path d="M13.9506403,9.6530016 C13.9772941,9.43977649 13.9972832,9.22655066 13.9972832,8.99999936 C13.9972832,8.77344799 13.9772928,8.5602222 13.9506403,8.34699709 L15.3565952,7.24755431 C15.483198,7.14760522 15.516514,6.96769605 15.4365552,6.82110345 L14.103897,4.51560461 C14.0239369,4.36901235 13.844029,4.31570576 13.6974358,4.36901235 L12.0382764,5.03534149 C11.691785,4.76880979 11.318641,4.54892122 10.9121798,4.38233891 L10.6589747,2.61656667 C10.6389843,2.45664736 10.4990552,2.33670807 10.3324729,2.33670807 L7.66715644,2.33670807 C7.50057412,2.33670807 7.36064501,2.45664736 7.3406553,2.61656635 L7.08745016,4.38233861 C6.68098961,4.54892089 6.307845,4.7754729 5.96135389,5.03534119 L4.30219417,4.36901205 C4.14893846,4.30904231 3.97569307,4.36901205 3.89573333,4.51560431 L2.56307506,6.82110281 C2.47645221,6.96769541 2.51643207,7.14760395 2.64303449,7.24755367 L4.04898904,8.34699709 C4.02233591,8.5602222 4.0023459,8.78011076 4.0023459,8.99999936 C4.0023459,9.21988792 4.02233591,9.43977649 4.04898904,9.6530016 L2.64303464,10.7524444 C2.51643207,10.8523935 2.48311565,11.0323027 2.56307506,11.1788953 L3.89573333,13.4843941 C3.97569274,13.630986 4.15560161,13.6842923 4.30219417,13.630986 L5.96135359,12.9646569 C6.3078447,13.2311883 6.68098897,13.4510768 7.08744953,13.6176591 L7.34065466,15.3834311 C7.36064438,15.5433499 7.50057349,15.6632893 7.6671558,15.6632893 L10.3324723,15.6632893 C10.4990546,15.6632893 10.6389837,15.5433499 10.6589734,15.3834311 L10.9121786,13.6176591 C11.3186391,13.4510768 11.6917837,13.2245248 12.0382751,12.9646569 L13.6974345,13.630986 C13.8506899,13.6909558 14.0239357,13.630986 14.1038957,13.4843941 L15.436554,11.1788953 C15.516514,11.0323027 15.4831968,10.8523942 15.3565939,10.7524444 L13.950639,9.6530016 L13.9506403,9.6530016 Z M8.99981467,11.3321513 C7.7137992,11.3321513 6.66766271,10.2860148 6.66766271,8.99999936 C6.66766271,7.71398389 7.7137992,6.66784744 8.99981467,6.66784744 C10.2858301,6.66784744 11.3319666,7.71398389 11.3319666,8.99999936 C11.3319666,10.2860148 10.2858301,11.3321513 8.99981467,11.3321513 Z" id="Fill-2" fill="#FFFFFF" fill-rule="nonzero"></path>
    </g>
  </g>
</svg>