<svg width="18px" height="18px" viewBox="0 0 18 18" 
  xmlns="http://www.w3.org/2000/svg">
  <!-- plyr -->
  <!-- <polygon points="1 12 4.6 12 0.6 16 2 17.4 6 13.4 6 17 8 17 8 10 1 10"></polygon>
  <polygon points="16 0.6 12 4.6 12 1 10 1 10 8 17 8 17 6 13.4 6 17.4 2"></polygon> -->
  <!-- uiza -->
  <g id="Page-1" stroke="none" stroke-width="1" fill="none" fill-rule="evenodd">
    <g id="scale-down">
      <polygon id="Stroke-1" stroke-opacity="0.00784313771" stroke="#000000" stroke-width="1.33333335e-11" points="0 0 17.9999989 0 17.9999989 17.9999989 0 17.9999989"></polygon>
      <path d="M3.40288315,10.4999999 L4.97344403,12.0705614 L2.99999987,14.0303489 L3.96965089,14.9999999 L5.92943895,13.0265551 L7.49999987,14.5971166 L7.49999987,10.4999999 L3.40288315,10.4999999 Z M14.5971166,7.49999987 L13.0265551,5.92943828 L14.9999999,3.96965081 L14.0303489,2.99999987 L12.0705614,4.97344335 L10.4999999,3.40288247 L10.4999999,7.49999987 L14.5971166,7.49999987 Z" id="Fill-2" fill="#FFFFFF" fill-rule="nonzero"></path>
    </g>
  </g>
</svg>