<svg width="18px" height="18px" viewBox="0 0 18 18" 
  xmlns="http://www.w3.org/2000/svg">
  <!-- plyr -->
  <!-- <g fill-rule="evenodd">
    <path d="M1,1 C0.4,1 0,1.4 0,2 L0,13 C0,13.6 0.4,14 1,14 L5.6,14 L8.3,16.7 C8.5,16.9 8.7,17 9,17 C9.3,17 9.5,16.9 9.7,16.7 L12.4,14 L17,14 C17.6,14 18,13.6 18,13 L18,2 C18,1.4 17.6,1 17,1 L1,1 Z M5.52,11.15 C7.51,11.15 8.53,9.83 8.8,8.74 L7.51,8.35 C7.32,9.01 6.73,9.8 5.52,9.8 C4.38,9.8 3.32,8.97 3.32,7.46 C3.32,5.85 4.44,5.09 5.5,5.09 C6.73,5.09 7.28,5.84 7.45,6.52 L8.75,6.11 C8.47,4.96 7.46,3.76 5.5,3.76 C3.6,3.76 1.89,5.2 1.89,7.46 C1.89,9.72 3.54,11.15 5.52,11.15 Z M13.09,11.15 C15.08,11.15 16.1,9.83 16.37,8.74 L15.08,8.35 C14.89,9.01 14.3,9.8 13.09,9.8 C11.95,9.8 10.89,8.97 10.89,7.46 C10.89,5.85 12.01,5.09 13.07,5.09 C14.3,5.09 14.85,5.84 15.02,6.52 L16.32,6.11 C16.04,4.96 15.03,3.76 13.07,3.76 C11.17,3.76 9.46,5.2 9.46,7.46 C9.46,9.72 11.11,11.15 13.09,11.15 Z"></path>
  </g> -->
  <!-- uiza -->
  <g id="icon/cc" stroke="none" stroke-width="1" fill="none" fill-rule="evenodd">
    <path d="M8.89126624,10.0043658 C8.85233723,10.5385724 8.65368771,10.9591118 8.29531175,11.2659965 C7.93693578,11.5728812 7.46464227,11.7263212 6.87841705,11.7263212 C6.23723321,11.7263212 5.73288099,11.5120734 5.36534525,11.0835715 C4.99780952,10.6550695 4.81404441,10.0668827 4.81404441,9.31899339 L4.81404441,9.01552005 C4.81404441,8.53814388 4.898771,8.11760451 5.06822673,7.75388933 C5.23768246,7.39017415 5.47984022,7.11114059 5.79470728,6.91678029 C6.10957435,6.72241999 6.47538714,6.6252413 6.89215663,6.6252413 C7.46922209,6.6252413 7.9340734,6.77868134 8.28672451,7.08556603 C8.63937562,7.39245071 8.84317742,7.82321941 8.89813604,8.37788506 L7.86766717,8.37788506 C7.8424778,8.05736106 7.75259891,7.82492781 7.59802781,7.68057835 C7.44345671,7.53622889 7.20816867,7.46405524 6.89215663,7.46405524 C6.54866529,7.46405524 6.29162313,7.58623898 6.12102243,7.83061011 C5.95042173,8.07498125 5.86283275,8.45403498 5.85825287,8.96778267 L5.85825287,9.34286208 C5.85825287,9.87934197 5.94011707,10.2714665 6.10384795,10.5192475 C6.26757882,10.7670284 6.52576594,10.8909171 6.87841705,10.8909171 C7.19671902,10.8909171 7.43429697,10.8187434 7.59115802,10.674394 C7.74801906,10.5300445 7.83789795,10.306704 7.86079737,10.0043658 L8.89126624,10.0043658 Z M13.4940272,10.0043658 C13.4550982,10.5385724 13.2564487,10.9591118 12.8980727,11.2659965 C12.5396967,11.5728812 12.0674032,11.7263212 11.481178,11.7263212 C10.8399942,11.7263212 10.335642,11.5120734 9.96810622,11.0835715 C9.60057048,10.6550695 9.41680537,10.0668827 9.41680537,9.31899339 L9.41680537,9.01552005 C9.41680537,8.53814388 9.50153196,8.11760451 9.67098769,7.75388933 C9.84044342,7.39017415 10.0826012,7.11114059 10.3974682,6.91678029 C10.7123353,6.72241999 11.0781481,6.6252413 11.4949176,6.6252413 C12.071983,6.6252413 12.5368344,6.77868134 12.8894855,7.08556603 C13.2421366,7.39245071 13.4459384,7.82321941 13.500897,8.37788506 L12.4704281,8.37788506 C12.4452388,8.05736106 12.3553599,7.82492781 12.2007888,7.68057835 C12.0462177,7.53622889 11.8109296,7.46405524 11.4949176,7.46405524 C11.1514263,7.46405524 10.8943841,7.58623898 10.7237834,7.83061011 C10.5531827,8.07498125 10.4655937,8.45403498 10.4610138,8.96778267 L10.4610138,9.34286208 C10.4610138,9.87934197 10.542878,10.2714665 10.7066089,10.5192475 C10.8703398,10.7670284 11.1285269,10.8909171 11.481178,10.8909171 C11.79948,10.8909171 12.0370579,10.8187434 12.193919,10.674394 C12.35078,10.5300445 12.4406589,10.306704 12.4635583,10.0043658 L13.4940272,10.0043658 Z" id="CC" fill-opacity="0.85" fill="#FFFFFF"></path>
    <path d="M1.875,3.75 L1.875,14.25 L16.125,14.25 L16.125,3.75 L1.875,3.75 Z M0.75,2.625 L17.25,2.625 L17.25,15.375 L0.75,15.375 L0.75,2.625 Z" id="Rectangle" fill="#FFFFFF" fill-rule="nonzero"></path>
  </g>
</svg>