<svg width="18px" height="18px" viewBox="0 0 18 18" 
  xmlns="http://www.w3.org/2000/svg">
  <!-- plyr -->
  <!-- <path d="M9.7,1.2 L10.4,7.6 L12.5,5.5 C14.4,7.4 14.4,10.6 12.5,12.5 C11.6,13.5 10.3,14 9,14 C7.7,14 6.4,13.5 5.5,12.5 C3.6,10.6 3.6,7.4 5.5,5.5 C6.1,4.9 6.9,4.4 7.8,4.2 L7.2,2.3 C6,2.6 4.9,3.2 4,4.1 C1.3,6.8 1.3,11.2 4,14 C5.3,15.3 7.1,16 8.9,16 C10.8,16 12.5,15.3 13.8,14 C16.5,11.3 16.5,6.9 13.8,4.1 L16,1.9 L9.7,1.2 L9.7,1.2 Z"></path> -->
  <!-- uiza -->
  <g id="Page-1" stroke="none" stroke-width="1" fill="none" fill-rule="evenodd">
    <g id="replay" transform="translate(1.000000, 0.000000)">
      <polygon id="Stroke-1" stroke-opacity="0.00784313771" stroke="#000000" stroke-width="1.33333335e-11" points="0 0 16.6153836 0 16.6153836 16.6153836 0 16.6153836"></polygon>
      <path d="M14.6245628,10.7736011 L10.0812936,10.7736011 L11.7794588,12.4717663 C10.9213252,13.3298526 9.78042032,13.8024473 8.56687049,13.8024473 C7.3533207,13.8024473 6.21241587,13.3298526 5.35428224,12.4717663 C4.49619594,11.6136327 4.02360126,10.4727279 4.02360126,9.25917803 C4.02360126,8.04562824 4.49619594,6.90472341 5.35428224,6.04658978 C6.21241587,5.18850347 7.3533207,4.7159088 8.56687049,4.7159088 C9.78042032,4.7159088 10.9213252,5.18850347 11.7794351,6.04661346 C11.8510862,6.11824092 11.9197559,6.19204539 11.9859646,6.26748259 L13.1255679,5.27030596 C12.0152355,4.0023789 10.3846514,3.20148573 8.56687049,3.20148573 C5.22129696,3.20148573 2.5091782,5.9136045 2.5091782,9.25917803 C2.5091782,12.6047516 5.22129696,15.3168703 8.56687049,15.3168703 C10.2396691,15.3168703 11.7538792,14.6386218 12.8500376,13.5423451 L14.6245628,15.3168703 L14.6245628,10.7736011 Z" id="Fill-2" fill="#FFFFFF" fill-rule="nonzero" transform="translate(8.566870, 9.259178) rotate(-135.000000) translate(-8.566870, -9.259178) "></path>
    </g>
  </g>
</svg>