<svg width="18px" height="18px" viewBox="0 0 18 18" 
  xmlns="http://www.w3.org/2000/svg">
  <!-- plyr -->
  <!-- <path d="M15.5999996,3.3 C15.1999996,2.9 14.5999996,2.9 14.1999996,3.3 C13.7999996,3.7 13.7999996,4.3 14.1999996,4.7 C15.3999996,5.9 15.9999996,7.4 15.9999996,9 C15.9999996,10.6 15.3999996,12.1 14.1999996,13.3 C13.7999996,13.7 13.7999996,14.3 14.1999996,14.7 C14.3999996,14.9 14.6999996,15 14.8999996,15 C15.1999996,15 15.3999996,14.9 15.5999996,14.7 C17.0999996,13.2 17.9999996,11.2 17.9999996,9 C17.9999996,6.8 17.0999996,4.8 15.5999996,3.3 L15.5999996,3.3 Z"></path>
  <path d="M11.2819745,5.28197449 C10.9060085,5.65794047 10.9060085,6.22188944 11.2819745,6.59785542 C12.0171538,7.33303477 12.2772954,8.05605449 12.2772954,9.00000021 C12.2772954,9.93588462 11.851678,10.9172014 11.2819745,11.4869049 C10.9060085,11.8628709 10.9060085,12.4268199 11.2819745,12.8027859 C11.4271642,12.9479755 11.9176724,13.0649528 12.2998149,12.9592565 C12.4124479,12.9281035 12.5156669,12.8776063 12.5978555,12.8027859 C13.773371,11.732654 14.1311161,10.1597914 14.1312523,9.00000021 C14.1312723,8.8299555 14.1286311,8.66015647 14.119665,8.4897429 C14.0674781,7.49784946 13.8010171,6.48513613 12.5978554,5.28197449 C12.2218894,4.9060085 11.6579405,4.9060085 11.2819745,5.28197449 Z"></path>
  <path d="M3.78571429,6.00820648 L0.714285714,6.00820648 C0.285714286,6.00820648 0,6.30901277 0,6.76022222 L0,11.2723167 C0,11.7235261 0.285714286,12.0243324 0.714285714,12.0243324 L3.78571429,12.0243324 L7.85714286,15.8819922 C8.35714286,16.1827985 9,15.8819922 9,15.2803796 L9,2.75215925 C9,2.15054666 8.35714286,1.77453879 7.85714286,2.15054666 L3.78571429,6.00820648 Z"></path> -->
  <!-- uiza -->
  <g id="Page-1" stroke="none" stroke-width="1" fill="none" fill-rule="evenodd">
    <g id="volumn">
      <polygon id="Stroke-1" stroke-opacity="0.00784313771" stroke="#000000" stroke-width="1.33333335e-11" points="0 0 17.9999989 0 17.9999989 17.9999989 0 17.9999989"></polygon>
      <path d="M2.24999986,6.74999981 L2.24999986,11.2499998 L5.24999986,11.2499998 L8.99999985,14.9999998 L8.99999985,2.99999982 L5.24999986,6.74999981 L2.24999986,6.74999981 Z M12.3749994,8.99999948 C12.3749994,7.67249918 11.6099989,6.53249962 10.4999994,5.97749947 L10.4999994,12.0149996 C11.6099989,11.4675 12.3749994,10.3274997 12.3749994,8.99999948 Z M10.4999994,2.42249808 L10.4999994,3.96749974 C12.6674987,4.61249977 14.2499994,6.62249955 14.2499994,8.99999947 C14.2499994,11.3774993 12.6674987,13.3874994 10.4999994,14.0324984 L10.4999994,15.5774979 C13.5074993,14.8949981 15.7499994,12.2099983 15.7499994,8.99999797 C15.7499994,5.78999771 13.5074993,3.10499827 10.4999994,2.42249808 L10.4999994,2.42249808 Z" id="Fill-2" fill="#FFFFFF" fill-rule="nonzero"></path>
    </g>
  </g>
</svg>